<svg xmlns="http://www.w3.org/2000/svg" width="2400" height="1500" viewBox="0 0 2400 1500">
  <defs>
    <!-- "Mock photo" look: soft contrast, warm highlights, gentle grain -->
    <linearGradient id="base" x1="0" y1="0" x2="1" y2="1">
      <stop offset="0" stop-color="#fbfaf7"/>
      <stop offset="0.45" stop-color="#efe8dd"/>
      <stop offset="1" stop-color="#d8cfbf"/>
    </linearGradient>

    <radialGradient id="windowLight" cx="35%" cy="22%" r="75%">
      <stop offset="0" stop-color="#ffffff" stop-opacity="0.95"/>
      <stop offset="0.55" stop-color="#ffffff" stop-opacity="0.22"/>
      <stop offset="1" stop-color="#ffffff" stop-opacity="0"/>
    </radialGradient>

    <filter id="grain" x="-20%" y="-20%" width="140%" height="140%">
      <feTurbulence type="fractalNoise" baseFrequency="0.85" numOctaves="3" stitchTiles="stitch" />
      <feColorMatrix type="matrix" values="
        1 0 0 0 0
        0 1 0 0 0
        0 0 1 0 0
        0 0 0 0.09 0" />
    </filter>

    <filter id="soften" x="-10%" y="-10%" width="120%" height="120%">
      <feGaussianBlur stdDeviation="1.2" />
    </filter>

    <linearGradient id="floor" x1="0" y1="0" x2="0" y2="1">
      <stop offset="0" stop-color="#f3efe7"/>
      <stop offset="0.65" stop-color="#e5dccf"/>
      <stop offset="1" stop-color="#d6cbb9"/>
    </linearGradient>

    <linearGradient id="shadow" x1="0" y1="0" x2="1" y2="0">
      <stop offset="0" stop-color="#1f1f1f" stop-opacity="0.12"/>
      <stop offset="0.7" stop-color="#1f1f1f" stop-opacity="0.03"/>
      <stop offset="1" stop-color="#1f1f1f" stop-opacity="0"/>
    </linearGradient>
  </defs>

  <!-- base "room" -->
  <rect width="2400" height="1500" fill="url(#base)"/>

  <!-- back wall -->
  <path d="M0,0 H2400 V720 C1940,660 1460,620 1060,620 C640,620 320,660 0,720 Z"
        fill="#ffffff" opacity="0.62"/>

  <!-- floor plane with perspective seams -->
  <path d="M0,720 C360,640 720,600 1100,600 C1540,600 1980,680 2400,820 V1500 H0 Z"
        fill="url(#floor)"/>

  <g opacity="0.22" stroke="#1f1f1f" stroke-width="2">
    <path d="M-50,940 L2600,720" />
    <path d="M-50,1040 L2600,800" />
    <path d="M-50,1140 L2600,880" />
    <path d="M-50,1240 L2600,960" />
    <path d="M-50,1340 L2600,1040" />
  </g>

  <!-- window-like light sweep -->
  <rect x="0" y="0" width="2400" height="1500" fill="url(#windowLight)"/>

  <!-- subtle left shadow for depth -->
  <rect x="0" y="0" width="1600" height="1500" fill="url(#shadow)"/>

  <!-- gentle vignette -->
  <g opacity="0.16" filter="url(#soften)">
    <rect x="-40" y="-40" width="2480" height="1580" fill="#1f1f1f" opacity="0.06"/>
  </g>

  <!-- grain -->
  <rect width="2400" height="1500" filter="url(#grain)" opacity="0.7"/>
</svg>


