<svg xmlns="http://www.w3.org/2000/svg" width="1800" height="1400" viewBox="0 0 1800 1400">
  <defs>
    <linearGradient id="bg" x1="0" y1="0" x2="1" y2="1">
      <stop offset="0" stop-color="#fbfaf7"/>
      <stop offset="0.55" stop-color="#eee7dc"/>
      <stop offset="1" stop-color="#d9cfbf"/>
    </linearGradient>

    <radialGradient id="spot" cx="28%" cy="20%" r="75%">
      <stop offset="0" stop-color="#ffffff" stop-opacity="0.85"/>
      <stop offset="0.6" stop-color="#ffffff" stop-opacity="0.18"/>
      <stop offset="1" stop-color="#ffffff" stop-opacity="0"/>
    </radialGradient>

    <filter id="grain" x="-20%" y="-20%" width="140%" height="140%">
      <feTurbulence type="fractalNoise" baseFrequency="0.9" numOctaves="3" stitchTiles="stitch"/>
      <feColorMatrix type="matrix" values="
        1 0 0 0 0
        0 1 0 0 0
        0 0 1 0 0
        0 0 0 0.10 0"/>
    </filter>

    <filter id="soft" x="-10%" y="-10%" width="120%" height="120%">
      <feGaussianBlur stdDeviation="1.1"/>
    </filter>

    <linearGradient id="toolShadow" x1="0" y1="0" x2="1" y2="0">
      <stop offset="0" stop-color="#1f1f1f" stop-opacity="0.12"/>
      <stop offset="1" stop-color="#1f1f1f" stop-opacity="0"/>
    </linearGradient>
  </defs>

  <rect width="1800" height="1400" fill="url(#bg)"/>

  <!-- "photo" composition: floor + tool + tape line -->
  <path d="M0,760 C300,690 640,650 980,650 C1320,650 1600,710 1800,780 V1400 H0 Z"
        fill="#ffffff" opacity="0.42"/>
  <path d="M0,820 C300,740 650,705 1020,705 C1370,705 1620,760 1800,820 V1400 H0 Z"
        fill="#e8dece" opacity="0.65"/>

  <!-- floor seams -->
  <g opacity="0.18" stroke="#1f1f1f" stroke-width="2">
    <path d="M-60,1020 L1900,820" />
    <path d="M-60,1120 L1900,900" />
    <path d="M-60,1220 L1900,980" />
    <path d="M-60,1320 L1900,1060" />
  </g>

  <!-- tape line -->
  <path d="M240,860 C620,810 920,800 1220,830 C1460,855 1620,900 1700,930"
        stroke="#cfc4b2" stroke-width="10" opacity="0.9" fill="none"/>

  <!-- tool silhouette (abstract, softened) -->
  <g filter="url(#soft)" opacity="0.35">
    <path d="M980,520 C1070,470 1200,485 1280,560 C1360,635 1320,760 1220,810 C1120,860 980,820 920,720 C860,620 900,560 980,520 Z"
          fill="#1f1f1f"/>
    <rect x="760" y="650" width="520" height="90" rx="45" fill="url(#toolShadow)"/>
  </g>

  <rect width="1800" height="1400" fill="url(#spot)"/>
  <rect width="1800" height="1400" filter="url(#grain)" opacity="0.7"/>
</svg>


